
<svg width="22" height="19" viewBox="0 0 22 19" fill="none" xmlns="http://www.w3.org/2000/svg">
<path d="M0 1.5625C0 0.732422 0.683594 0 1.5625 0H20.3125C21.1426 0 21.875 0.732422 21.875 1.5625C21.875 2.44141 21.1426 3.125 20.3125 3.125H1.5625C0.683594 3.125 0 2.44141 0 1.5625ZM0 9.375C0 8.54492 0.683594 7.8125 1.5625 7.8125H20.3125C21.1426 7.8125 21.875 8.54492 21.875 9.375C21.875 10.2539 21.1426 10.9375 20.3125 10.9375H1.5625C0.683594 10.9375 0 10.2539 0 9.375ZM21.875 17.1875C21.875 18.0664 21.1426 18.75 20.3125 18.75H1.5625C0.683594 18.75 0 18.0664 0 17.1875C0 16.3574 0.683594 15.625 1.5625 15.625H20.3125C21.1426 15.625 21.875 16.3574 21.875 17.1875Z" fill="white"/>
</svg>
