<svg width="60" height="60" viewBox="0 0 60 60" fill="none" xmlns="http://www.w3.org/2000/svg">
<path d="M0 5.625C0 2.57812 2.46094 0 5.625 0H16.875C17.8125 0 18.75 0.9375 18.75 1.875C18.75 2.92969 17.8125 3.75 16.875 3.75H5.625C4.57031 3.75 3.75 4.6875 3.75 5.625V16.875C3.75 17.9297 2.8125 18.75 1.875 18.75C0.820312 18.75 0 17.9297 0 16.875V5.625ZM25.3125 11.25H34.5703C36.5625 11.25 38.3203 12.5391 38.9062 14.2969L39.2578 15H42.1875C45.7031 15 48.75 18.0469 48.75 21.5625V38.4375C48.75 42.0703 45.7031 45 42.1875 45H17.8125C14.1797 45 11.25 42.0703 11.25 38.4375V21.5625C11.25 18.0469 14.1797 15 17.8125 15H20.625L20.9766 14.2969C21.6797 12.5391 23.3203 11.25 25.3125 11.25ZM24.4922 15.7031L23.7891 17.5781C23.4375 18.2812 22.7344 18.75 22.0312 18.75H17.8125C16.1719 18.75 15 20.0391 15 21.5625V38.4375C15 40.0781 16.1719 41.25 17.8125 41.25H42.1875C43.7109 41.25 45 40.0781 45 38.4375V21.5625C45 20.0391 43.7109 18.75 42.1875 18.75H37.9688C37.1484 18.75 36.4453 18.2812 36.2109 17.5781L35.3906 15.7031C35.2734 15.3516 34.9219 15 34.5703 15H25.3125C24.9609 15 24.6094 15.3516 24.4922 15.7031ZM26.25 30C26.25 32.1094 27.8906 33.75 30 33.75C31.9922 33.75 33.75 32.1094 33.75 30C33.75 28.0078 31.9922 26.25 30 26.25C27.8906 26.25 26.25 28.0078 26.25 30ZM37.5 30C37.5 32.6953 35.9766 35.1562 33.75 36.5625C31.4062 37.8516 28.4766 37.8516 26.25 36.5625C23.9062 35.1562 22.5 32.6953 22.5 30C22.5 27.4219 23.9062 24.9609 26.25 23.5547C28.4766 22.2656 31.4062 22.2656 33.75 23.5547C35.9766 24.9609 37.5 27.4219 37.5 30ZM54.375 0C57.4219 0 60 2.57812 60 5.625V16.875C60 17.9297 59.0625 18.75 58.125 18.75C57.0703 18.75 56.25 17.9297 56.25 16.875V5.625C56.25 4.6875 55.3125 3.75 54.375 3.75H43.125C42.0703 3.75 41.25 2.92969 41.25 1.875C41.25 0.9375 42.0703 0 43.125 0H54.375ZM0 54.375V43.125C0 42.1875 0.820312 41.25 1.875 41.25C2.8125 41.25 3.75 42.1875 3.75 43.125V54.375C3.75 55.4297 4.57031 56.25 5.625 56.25H16.875C17.8125 56.25 18.75 57.1875 18.75 58.125C18.75 59.1797 17.8125 60 16.875 60H5.625C2.46094 60 0 57.5391 0 54.375ZM54.375 60H43.125C42.0703 60 41.25 59.1797 41.25 58.125C41.25 57.1875 42.0703 56.25 43.125 56.25H54.375C55.3125 56.25 56.25 55.4297 56.25 54.375V43.125C56.25 42.1875 57.0703 41.25 58.125 41.25C59.0625 41.25 60 42.1875 60 43.125V54.375C60 57.5391 57.4219 60 54.375 60Z" fill="white"/>
</svg>
