<svg width="9" height="8" viewBox="0 0 9 8" fill="none" xmlns="http://www.w3.org/2000/svg">
<path d="M8.59375 4.14062L5.15625 7.42188C4.96094 7.59766 4.66797 7.59766 4.49219 7.40234C4.31641 7.20703 4.31641 6.91406 4.51172 6.73828L7.10938 4.25781H0.46875C0.195312 4.25781 0 4.0625 0 3.78906C0 3.53516 0.195312 3.32031 0.46875 3.32031H7.10938L4.51172 0.859375C4.31641 0.683594 4.31641 0.371094 4.49219 0.195312C4.66797 0 4.98047 0 5.15625 0.175781L8.59375 3.45703C8.69141 3.55469 8.75 3.67188 8.75 3.78906C8.75 3.92578 8.69141 4.04297 8.59375 4.14062Z" fill="#4B5560"/>
</svg>
