<svg width="14" height="14" viewBox="0 0 14 14" fill="none" xmlns="http://www.w3.org/2000/svg">
<path d="M7.4375 0.4375V9.02344L10.1719 6.26172C10.3359 6.09766 10.6367 6.09766 10.8008 6.26172C10.9648 6.42578 10.9648 6.72656 10.8008 6.89062L7.30078 10.3906C7.13672 10.5547 6.83594 10.5547 6.67188 10.3906L3.17188 6.89062C3.00781 6.72656 3.00781 6.42578 3.17188 6.26172C3.33594 6.09766 3.63672 6.09766 3.80078 6.26172L6.5625 9.02344V0.4375C6.5625 0.21875 6.75391 0 7 0C7.21875 0 7.4375 0.21875 7.4375 0.4375ZM3.82812 8.75L4.70312 9.625H1.75C1.25781 9.625 0.875 10.0352 0.875 10.5V12.25C0.875 12.7422 1.25781 13.125 1.75 13.125H12.25C12.7148 13.125 13.125 12.7422 13.125 12.25V10.5C13.125 10.0352 12.7148 9.625 12.25 9.625H9.26953L10.1445 8.75H12.25C13.207 8.75 14 9.54297 14 10.5V12.25C14 13.2344 13.207 14 12.25 14H1.75C0.765625 14 0 13.2344 0 12.25V10.5C0 9.54297 0.765625 8.75 1.75 8.75H3.82812ZM11.8125 11.375C11.8125 11.7578 11.5117 12.0312 11.1562 12.0312C10.7734 12.0312 10.5 11.7578 10.5 11.375C10.5 11.0195 10.7734 10.7188 11.1562 10.7188C11.5117 10.7188 11.8125 11.0195 11.8125 11.375Z" fill="#001B3A"/>
</svg>
