<svg width="84" height="80" viewBox="0 0 84 80" fill="none" xmlns="http://www.w3.org/2000/svg">
<path d="M41.875 2.5C28.4375 2.5 16.0938 9.6875 9.375 21.25C2.65625 32.9688 2.65625 47.1875 9.375 58.75C16.0938 70.4688 28.4375 77.5 41.875 77.5C55.1562 77.5 67.5 70.4688 74.2188 58.75C80.9375 47.1875 80.9375 32.9688 74.2188 21.25C67.5 9.6875 55.1562 2.5 41.875 2.5ZM41.875 80C27.5 80 14.375 72.5 7.1875 60C0 47.6562 0 32.5 7.1875 20C14.375 7.65625 27.5 0 41.875 0C56.0938 0 69.2188 7.65625 76.4062 20C83.5938 32.5 83.5938 47.6562 76.4062 60C69.2188 72.5 56.0938 80 41.875 80ZM32.5 25.1562C32.0312 25.4688 31.875 25.9375 31.875 26.25V53.75C31.875 54.2188 32.0312 54.6875 32.5 54.8438C32.8125 55.1562 33.2812 55.1562 33.75 54.8438L56.25 41.0938C56.5625 40.9375 56.875 40.4688 56.875 40C56.875 39.6875 56.5625 39.2188 56.25 39.0625L33.75 25.3125C33.2812 25 32.8125 25 32.5 25.1562ZM35 23.125L57.5 36.875C58.5938 37.5 59.375 38.75 59.375 40C59.375 41.4062 58.5938 42.5 57.5 43.2812L35 57.0312C33.9062 57.6562 32.3438 57.8125 31.25 57.0312C30 56.4062 29.2188 55.1562 29.2188 53.75V26.25C29.2188 25 30 23.75 31.25 22.9688C32.3438 22.3438 33.9062 22.3438 35 23.125Z" fill="white"/>
</svg>
